<?xml version="1.0" encoding="UTF-8"?>
<svg id="Layer_1" xmlns="http://www.w3.org/2000/svg" version="1.1" viewBox="0 0 16 16">
  <!-- Generator: Adobe Illustrator 29.6.0, SVG Export Plug-In . SVG Version: 2.1.1 Build 207)  -->
  <defs>
    <style>
      .st0 {
        fill: #0d0d0d;
      }

      .st1 {
        fill: #242424;
      }

      .st2 {
        fill: #fafafa;
      }
    </style>
  </defs>
  <path class="st2" d="M7.63,1.07c-3.41.54-3.85,7.59,1.77,5.84,3.37-1.05.68-6.24-1.77-5.84ZM14,13.99c1.15-6.55-11.14-7.01-12.01-1.5-.36,2.3.98,1.39,2.5,1.51,3.14.24,6.38-.17,9.51,0Z"/>
  <path class="st0" d="M14,13.99c-3.14-.16-6.38.25-9.51,0-1.52-.12-2.86.79-2.5-1.51.87-5.51,13.16-5.05,12.01,1.5Z"/>
  <path class="st1" d="M7.63,1.07c2.45-.39,5.14,4.8,1.77,5.84-5.62,1.75-5.18-5.3-1.77-5.84Z"/>
</svg>